<svg width="18" height="18" viewBox="0 0 18 18" fill="none" xmlns="http://www.w3.org/2000/svg">
<path d="M7 0H1C0.734784 0 0.48043 0.105357 0.292893 0.292893C0.105357 0.48043 0 0.734784 0 1V7C0 7.26522 0.105357 7.51957 0.292893 7.70711C0.48043 7.89464 0.734784 8 1 8H7C7.26522 8 7.51957 7.89464 7.70711 7.70711C7.89464 7.51957 8 7.26522 8 7V1C8 0.734784 7.89464 0.48043 7.70711 0.292893C7.51957 0.105357 7.26522 0 7 0ZM6 6H2V2H6V6ZM11 8H17C17.2652 8 17.5196 7.89464 17.7071 7.70711C17.8946 7.51957 18 7.26522 18 7V1C18 0.734784 17.8946 0.48043 17.7071 0.292893C17.5196 0.105357 17.2652 0 17 0H11C10.7348 0 10.4804 0.105357 10.2929 0.292893C10.1054 0.48043 10 0.734784 10 1V7C10 7.26522 10.1054 7.51957 10.2929 7.70711C10.4804 7.89464 10.7348 8 11 8ZM12 2H16V6H12V2ZM7 10H1C0.734784 10 0.48043 10.1054 0.292893 10.2929C0.105357 10.4804 0 10.7348 0 11V17C0 17.2652 0.105357 17.5196 0.292893 17.7071C0.48043 17.8946 0.734784 18 1 18H7C7.26522 18 7.51957 17.8946 7.70711 17.7071C7.89464 17.5196 8 17.2652 8 17V11C8 10.7348 7.89464 10.4804 7.70711 10.2929C7.51957 10.1054 7.26522 10 7 10ZM6 16H2V12H6V16ZM11 13C11.2652 13 11.5196 12.8946 11.7071 12.7071C11.8946 12.5196 12 12.2652 12 12C12.2652 12 12.5196 11.8946 12.7071 11.7071C12.8946 11.5196 13 11.2652 13 11C13 10.7348 12.8946 10.4804 12.7071 10.2929C12.5196 10.1054 12.2652 10 12 10H11C10.7348 10 10.4804 10.1054 10.2929 10.2929C10.1054 10.4804 10 10.7348 10 11V12C10 12.2652 10.1054 12.5196 10.2929 12.7071C10.4804 12.8946 10.7348 13 11 13ZM17 10C16.7348 10 16.4804 10.1054 16.2929 10.2929C16.1054 10.4804 16 10.7348 16 11V16C15.7348 16 15.4804 16.1054 15.2929 16.2929C15.1054 16.4804 15 16.7348 15 17C15 17.2652 15.1054 17.5196 15.2929 17.7071C15.4804 17.8946 15.7348 18 16 18H17C17.2652 18 17.5196 17.8946 17.7071 17.7071C17.8946 17.5196 18 17.2652 18 17V11C18 10.7348 17.8946 10.4804 17.7071 10.2929C17.5196 10.1054 17.2652 10 17 10ZM11 16C10.8022 16 10.6089 16.0586 10.4444 16.1685C10.28 16.2784 10.1518 16.4346 10.0761 16.6173C10.0004 16.8 9.98063 17.0011 10.0192 17.1951C10.0578 17.3891 10.153 17.5673 10.2929 17.7071C10.4327 17.847 10.6109 17.9422 10.8049 17.9808C10.9989 18.0194 11.2 17.9996 11.3827 17.9239C11.5654 17.8482 11.7216 17.72 11.8315 17.5556C11.9414 17.3911 12 17.1978 12 17C12 16.7348 11.8946 16.4804 11.7071 16.2929C11.5196 16.1054 11.2652 16 11 16Z" fill="#4F7F00"/>
<path d="M13.4252 12.8756C13.5897 12.7658 13.783 12.7071 13.9808 12.7071C14.246 12.7071 14.5004 12.8125 14.6879 13C14.8754 13.1875 14.9808 13.4419 14.9808 13.7071C14.9808 13.9049 14.9221 14.0982 14.8123 14.2627C14.7024 14.4271 14.5462 14.5553 14.3635 14.631C14.1807 14.7067 13.9797 14.7265 13.7857 14.6879C13.5917 14.6493 13.4135 14.5541 13.2737 14.4142C13.1338 14.2744 13.0386 14.0962 13 13.9022C12.9614 13.7082 12.9812 13.5072 13.0569 13.3244C13.1326 13.1417 13.2608 12.9855 13.4252 12.8756Z" fill="#4F7F00"/>
</svg>
