<svg width="24" height="24" viewBox="0 0 24 24" fill="none" xmlns="http://www.w3.org/2000/svg">
<path d="M8.20054 17.7521L8.20061 17.752L11.8004 14.1523L11.8011 14.1517C11.8027 14.15 11.8171 14.1383 11.8487 14.1383C11.8804 14.1383 11.8956 14.1502 11.8977 14.1523L15.5106 17.7652L15.5108 17.7653C16.1258 18.3799 16.9029 18.7772 17.7449 18.9169L14.154 22.5079C14.154 22.5079 14.154 22.5079 14.154 22.5079C12.9644 23.6974 11.0358 23.6974 9.84619 22.5079L6.19707 18.8588C6.95006 18.6892 7.64216 18.3103 8.20054 17.7521Z" stroke="#30313C" stroke-width="1.2" stroke-linecap="round" stroke-linejoin="round"/>
<path d="M15.5107 6.23494L15.5106 6.23505L11.8978 9.84847C11.8978 9.84848 11.8977 9.84849 11.8977 9.84851C11.871 9.87517 11.8266 9.87444 11.801 9.84878L11.8004 9.84815L8.20069 6.24813L8.20056 6.248C7.64213 5.68986 6.95005 5.31093 6.1971 5.14133L9.84614 1.49228C11.0357 0.302708 12.9644 0.302708 14.1539 1.49228L17.7447 5.08307C16.9027 5.22285 16.1256 5.62025 15.5107 6.23494Z" stroke="#30313C" stroke-width="1.2" stroke-linecap="round" stroke-linejoin="round"/>
<path d="M1.49204 9.84615L1.49206 9.84613L4.03971 7.29848H5.28314C5.77357 7.29848 6.25661 7.49864 6.60285 7.84514L6.60301 7.8453L10.2027 11.445C10.2028 11.4451 10.2028 11.4451 10.2028 11.4451C10.4657 11.7081 10.7766 11.8949 11.1072 12.0056C10.773 12.1135 10.4612 12.2966 10.2028 12.5552C10.2027 12.5553 10.2026 12.5554 10.2025 12.5554L6.60303 16.1545L6.6028 16.1548C6.25657 16.5013 5.77356 16.7015 5.28314 16.7015H4.0397L1.49208 14.154C0.302462 12.9642 0.302509 11.0356 1.49204 9.84615ZM13.4948 12.5547C13.2364 12.2965 12.9245 12.1135 12.5902 12.0056C12.9208 11.895 13.2316 11.7083 13.4944 11.4457L13.4947 11.4454L17.1079 7.8322L17.108 7.8321C17.4544 7.48552 17.9374 7.28538 18.4278 7.28538H19.947L22.5077 9.84613L22.5077 9.84615C23.6972 11.0356 23.6973 12.9642 22.5077 14.1539C22.5077 14.1539 22.5077 14.154 22.5077 14.154L19.9471 16.7146H18.4278C17.9374 16.7146 17.4544 16.5144 17.108 16.1679L17.1079 16.1678L13.495 12.5549L13.4948 12.5547Z" stroke="#30313C" stroke-width="1.2" stroke-linecap="round" stroke-linejoin="round"/>
</svg>
