<svg width="16" height="16" viewBox="0 0 16 16" fill="none" xmlns="http://www.w3.org/2000/svg">
<path d="M5.60845 11.9761L5.60851 11.9761L7.8994 9.68525L10.199 11.9849L10.1992 11.985C10.5489 12.3345 10.9723 12.5859 11.434 12.7244L9.29462 14.8638C9.29461 14.8638 9.2946 14.8638 9.29459 14.8638C8.57965 15.5787 7.42052 15.5787 6.70558 14.8638C6.70557 14.8638 6.70557 14.8638 6.70556 14.8638L4.51204 12.6703C4.91993 12.5254 5.29398 12.2905 5.60845 11.9761Z" stroke="#65A300" stroke-width="1.2" stroke-linecap="round" stroke-linejoin="round"/>
<path d="M10.1991 4.0151L10.199 4.01521L7.8995 6.31507L5.60857 4.02392L5.60844 4.0238C5.29396 3.70947 4.91992 3.47455 4.51206 3.32968L6.70554 1.1362C7.42048 0.42125 8.57961 0.42125 9.29455 1.1362L11.4339 3.27557C10.9722 3.41411 10.5488 3.66552 10.1991 4.0151Z" stroke="#65A300" stroke-width="1.2" stroke-linecap="round" stroke-linejoin="round"/>
<path d="M1.13613 6.70555L1.13615 6.70553L2.776 5.06567H3.52211C3.79604 5.06567 4.06716 5.17805 4.26045 5.37149L4.2606 5.37164L6.6604 7.77144C6.66042 7.77146 6.66044 7.77149 6.66047 7.77151C6.74833 7.85939 6.84332 7.93597 6.94357 8.00125C6.84265 8.06571 6.7476 8.14153 6.66049 8.2287C6.66048 8.22871 6.66047 8.22873 6.66045 8.22874C6.66037 8.22882 6.66029 8.2289 6.66021 8.22898L4.26063 10.6283L4.2604 10.6285C4.06712 10.822 3.79603 10.9343 3.52211 10.9343H2.77599L1.13616 9.29458C1.13616 9.29457 1.13615 9.29456 1.13614 9.29455C0.421179 8.5795 0.421236 7.42039 1.13613 6.70555ZM12.2852 5.05694H13.2151L14.8637 6.70553L14.8637 6.70555C15.5786 7.42039 15.5787 8.57951 14.8637 9.29456C14.8637 9.29456 14.8637 9.29457 14.8637 9.29458L13.2152 10.9431H12.2852C12.0113 10.9431 11.7402 10.8307 11.5468 10.6372L11.5467 10.6371L9.1381 8.2285L9.13792 8.22832C9.05085 8.14132 8.95583 8.06562 8.85493 8.00123C8.95504 7.93606 9.0499 7.85963 9.13767 7.77195L9.13788 7.77174L11.5467 5.36291L11.5468 5.36281C11.7402 5.16929 12.0113 5.05694 12.2852 5.05694Z" stroke="#65A300" stroke-width="1.2" stroke-linecap="round" stroke-linejoin="round"/>
</svg>
